<svg width="41" height="41" viewBox="0 0 41 41" fill="none" xmlns="http://www.w3.org/2000/svg">
<path fill-rule="evenodd" clip-rule="evenodd" d="M11.5312 19.2188H25.0946L19.8132 13.94C19.3135 13.4403 19.3135 12.6331 19.8132 12.1206C20.3142 11.6209 21.1252 11.6209 21.6262 12.1206L28.8743 19.3725C29.1805 19.68 29.2766 20.1028 29.2061 20.5C29.2766 20.8972 29.1805 21.32 28.8743 21.6275L21.6262 28.8794C21.1252 29.3791 20.3142 29.3791 19.8132 28.8794C19.3135 28.3797 19.3135 27.5597 19.8132 27.06L25.0946 21.7812H11.5312C10.824 21.7812 10.25 21.2047 10.25 20.5C10.25 19.7953 10.824 19.2188 11.5312 19.2188ZM20.5 38.4375C30.4066 38.4375 38.4375 30.4041 38.4375 20.5C38.4375 10.5959 30.4066 2.5625 20.5 2.5625C10.5934 2.5625 2.5625 10.5959 2.5625 20.5C2.5625 30.4041 10.5934 38.4375 20.5 38.4375ZM20.5 0C31.8211 0 41 9.17375 41 20.5C41 31.8263 31.8211 41 20.5 41C9.17887 41 0 31.8263 0 20.5C0 9.17375 9.17887 0 20.5 0Z" fill="black"/>
</svg>
